<mxfile host="app.diagrams.net" modified="2024-10-10T18:05:30.995Z" agent="Mozilla/5.0 (Windows NT 10.0; Win64; x64) AppleWebKit/537.36 (KHTML, like Gecko) Chrome/129.0.0.0 Safari/537.36" version="24.6.4" etag="pkhwj0HG4crcMYr00BJj" type="github">
  <diagram name="Страница — 1" id="RBTVNSHmY7kb4ZhNN-nH">
    <mxGraphModel>
      <root>
        <mxCell id="0" />
        <mxCell id="1" parent="0" />
      </root>
    </mxGraphModel>
  </diagram>
</mxfile>
